<?xml version="1.0" encoding="utf-8"?>
<!-- Generator: Adobe Illustrator 27.5.0, SVG Export Plug-In . SVG Version: 6.00 Build 0)  -->
<svg version="1.1" id="Layer_1" xmlns="http://www.w3.org/2000/svg" xmlns:xlink="http://www.w3.org/1999/xlink" x="0px" y="0px"
	 viewBox="0 0 1000 1000" style="enable-background:new 0 0 1000 1000;" xml:space="preserve">
<style type="text/css">
	.st0{fill:#3F3F3F;}
	.st1{fill:url(#SVGID_1_);}
	.st2{fill:url(#SVGID_00000015338152137398447950000000777261909758523039_);}
	.st3{fill:url(#SVGID_00000108297017682036340540000013141217104159555477_);}
	.st4{fill:url(#SVGID_00000117676263564002603050000005739454906812251287_);}
</style>
<g>
	<g>
		<path class="st0" d="M148.7,897.63h-30.04l1.7-11.61c-3.55,5.26-7.99,9.2-13.31,11.82c-5.33,2.63-11.5,3.94-18.53,3.94
			c-13.35,0-23.74-4.35-31.16-13.05c-7.42-8.7-11.13-20.93-11.13-36.7c0-18.18,4.74-33.13,14.22-44.84
			c9.48-11.72,21.53-17.58,36.16-17.58c7.46,0,14.02,1.51,19.71,4.53c5.68,3.02,10.44,7.55,14.27,13.58l1.81-14.59h30.04
			L148.7,897.63z M127.61,839.57c0-8.1-2.13-14.43-6.39-19.01c-4.26-4.58-10.16-6.87-17.68-6.87c-8.59,0-15.39,3.21-20.4,9.64
			c-5.01,6.43-7.51,15.25-7.51,26.47c0,7.67,2.25,13.78,6.76,18.32c4.51,4.54,10.63,6.82,18.37,6.82c8.02,0,14.5-3.23,19.44-9.69
			C125.14,858.78,127.61,850.23,127.61,839.57z"/>
		<path class="st0" d="M176.71,897.63l21.84-165.1h29.83l-7.99,61.68c-0.5,3.19-1.01,5.9-1.54,8.09c-0.53,2.2-1.19,4.3-1.97,6.28
			c6.11-6.53,12.21-11.33,18.32-14.38c6.11-3.05,12.64-4.58,19.6-4.58c11.29,0,20.08,2.77,26.36,8.31
			c6.28,5.54,9.43,13.24,9.43,23.11c0,3.91-0.61,10.23-1.81,18.96c-0.14,1.06-0.25,1.85-0.32,2.34l-7.24,55.28h-30.15l7.67-58.27
			c0.21-2.06,0.37-3.85,0.48-5.38c0.11-1.53,0.16-2.79,0.16-3.78c0-4.9-1.38-8.7-4.16-11.4c-2.77-2.7-6.67-4.05-11.72-4.05
			c-8.81,0-15.64,2.57-20.5,7.72c-4.87,5.15-8.01,13.12-9.43,23.91l-6.71,51.24H176.71z"/>
		<path class="st0" d="M320.4,864.07c3.55,5.04,7.55,8.98,11.98,11.82c4.44,2.84,8.82,4.26,13.15,4.26c3.55,0,6.43-0.91,8.63-2.72
			c2.2-1.81,3.3-4.17,3.3-7.08c0-4.26-4.05-8.7-12.14-13.31c-3.27-1.85-5.82-3.37-7.67-4.58c-7.46-4.83-12.62-9.43-15.5-13.79
			c-2.88-4.37-4.31-9.5-4.31-15.39c0-9.73,3.82-17.77,11.45-24.13c7.63-6.35,17.42-9.53,29.35-9.53c7.24,0,14.1,1.44,20.56,4.31
			c6.46,2.88,12.32,7.12,17.58,12.73l-17.9,16.19c-3.84-4.19-7.58-7.31-11.24-9.37c-3.66-2.06-7.26-3.09-10.81-3.09
			c-3.27,0-5.93,0.85-7.99,2.56c-2.06,1.7-3.09,3.91-3.09,6.6c0,3.84,5.43,8.77,16.3,14.81c3.12,1.78,5.54,3.16,7.24,4.15
			c5.68,3.27,9.91,7.12,12.68,11.56c2.77,4.44,4.15,9.6,4.15,15.5c0,10.65-3.76,19.32-11.29,25.99
			c-7.53,6.67-17.29,10.01-29.29,10.01c-8.24,0-15.85-1.63-22.85-4.9c-6.99-3.26-13.65-8.27-19.97-15.02L320.4,864.07z"/>
		<path class="st0" d="M510.22,897.63h-30.04l1.7-11.61c-3.55,5.26-7.99,9.2-13.31,11.82c-5.33,2.63-11.5,3.94-18.53,3.94
			c-13.35,0-23.74-4.35-31.16-13.05c-7.42-8.7-11.13-20.93-11.13-36.7c0-18.18,4.74-33.13,14.22-44.84
			c9.48-11.72,21.53-17.58,36.16-17.58c7.46,0,14.02,1.51,19.71,4.53c5.68,3.02,10.44,7.55,14.27,13.58l1.81-14.59h30.04
			L510.22,897.63z M489.13,839.57c0-8.1-2.13-14.43-6.39-19.01c-4.26-4.58-10.16-6.87-17.68-6.87c-8.59,0-15.39,3.21-20.4,9.64
			c-5.01,6.43-7.51,15.25-7.51,26.47c0,7.67,2.25,13.78,6.76,18.32c4.51,4.54,10.63,6.82,18.37,6.82c8.02,0,14.5-3.23,19.44-9.69
			C486.66,858.78,489.13,850.23,489.13,839.57z"/>
	</g>
	<linearGradient id="SVGID_1_" gradientUnits="userSpaceOnUse" x1="374.715" y1="223.5793" x2="609.7658" y2="544.1031">
		<stop  offset="0.362" style="stop-color:#FF5F56"/>
		<stop  offset="0.7075" style="stop-color:#DC413B"/>
		<stop  offset="1" style="stop-color:#C22C27"/>
	</linearGradient>
	<path class="st1" d="M961.33,98.22L575.92,593.73c-42.22,54.27-106.59,86.71-175.33,88.33l-361.93,8.56L961.33,98.22z"/>
	
		<linearGradient id="SVGID_00000137815395436868768880000014412929617557000592_" gradientUnits="userSpaceOnUse" x1="544.6555" y1="330.5737" x2="1138.693" y2="634.0029">
		<stop  offset="0" style="stop-color:#003799"/>
		<stop  offset="0.6156" style="stop-color:#0990CC"/>
	</linearGradient>
	<path style="fill:url(#SVGID_00000137815395436868768880000014412929617557000592_);" d="M961.33,98.22l-330.1,536.42
		C547.86,805.48,781.8,895.51,781.8,895.51L961.33,98.22z"/>
</g>
</svg>
